<?xml version="1.0" encoding="utf-8"?>
<!-- Generator: Adobe Illustrator 16.0.0, SVG Export Plug-In . SVG Version: 6.00 Build 0)  -->
<!DOCTYPE svg PUBLIC "-//W3C//DTD SVG 1.1//EN" "http://www.w3.org/Graphics/SVG/1.1/DTD/svg11.dtd">
<svg version="1.1" id="Layer_1" xmlns="http://www.w3.org/2000/svg" xmlns:xlink="http://www.w3.org/1999/xlink" x="0px" y="0px"
	 width="100px" height="100px" viewBox="0 0 100 100" enable-background="new 0 0 100 100" xml:space="preserve">
<path fill="#231815" d="M51.176-0.282h-3.437v31.981c-4.22,0.393-8.137,2.221-11.17,5.254c-3.442,3.442-5.338,8.02-5.338,12.888
	c0,9.471,7.262,17.271,16.509,18.141v31.985h3.437V67.986c4.219-0.391,8.137-2.22,11.171-5.254c3.207-3.207,5.049-7.401,5.29-11.897
	c0.031-0.327,0.049-0.66,0.048-0.994c0-4.868-1.896-9.445-5.338-12.888c-3.034-3.034-6.952-4.863-11.171-5.255V-0.282z
	 M62.334,54.465C61.1,55.7,59.458,56.38,57.713,56.38c-3.605,0-6.537-2.934-6.537-6.538c0-1.745,0.679-3.386,1.913-4.62
	c1.235-1.235,2.877-1.914,4.624-1.915c1.746,0.001,3.387,0.679,4.621,1.914c1.08,1.079,1.735,2.472,1.882,3.972
	c0.01,0.218,0.032,0.432,0.032,0.65c0.001,0.219-0.022,0.434-0.032,0.652C64.069,51.995,63.414,53.384,62.334,54.465z
	 M60.807,40.365c-0.987-0.321-2.025-0.494-3.093-0.495c-2.666,0-5.171,1.037-7.055,2.922c-1.883,1.883-2.92,4.387-2.92,7.05
	c0,5.499,4.473,9.975,9.974,9.975c1.068,0,2.106-0.175,3.094-0.495c-0.282,0.337-0.576,0.666-0.891,0.981
	c-2.793,2.794-6.507,4.331-10.457,4.331c-8.156,0-14.792-6.637-14.792-14.792c0-3.951,1.538-7.665,4.332-10.458
	c2.794-2.794,6.509-4.332,10.461-4.333c3.95,0.001,7.664,1.54,10.457,4.333C60.23,39.698,60.524,40.028,60.807,40.365z"/>
</svg>
