<?xml version="1.0" encoding="utf-8"?>
<!-- Generator: Adobe Illustrator 16.0.0, SVG Export Plug-In . SVG Version: 6.00 Build 0)  -->
<!DOCTYPE svg PUBLIC "-//W3C//DTD SVG 1.1//EN" "http://www.w3.org/Graphics/SVG/1.1/DTD/svg11.dtd">
<svg version="1.1" id="Layer_1" xmlns="http://www.w3.org/2000/svg" xmlns:xlink="http://www.w3.org/1999/xlink" x="0px" y="0px"
	 width="100px" height="100px" viewBox="0 0 100 100" enable-background="new 0 0 100 100" xml:space="preserve">
<g>
	<polygon fill="#231815" points="50.987,37.172 47.55,37.172 47.55,0 50.987,0 50.987,37.172 	"/>
	<polygon fill="#231815" points="50.987,100.299 47.55,100.299 47.55,63.002 50.987,63.002 50.987,100.299 	"/>
	<polygon fill="#231815" points="57.351,59.787 53.914,59.787 53.914,40.381 57.351,40.381 57.351,59.787 	"/>
	<polygon fill="#231815" points="50.986,59.787 47.549,59.787 47.551,40.382 50.988,40.382 50.986,59.787 	"/>
	<polygon fill="#231815" points="44.623,59.785 41.186,59.787 41.182,40.381 44.618,40.38 44.623,59.785 	"/>
	<path fill="#231815" d="M65.619,66.438H32.918l-0.002-32.703h32.702L65.619,66.438L65.619,66.438z M36.354,63h25.828l-0.001-25.829
		l-25.83-0.001L36.354,63L36.354,63z"/>
</g>
</svg>
