<?xml version="1.0" encoding="utf-8"?>
<!-- Generator: Adobe Illustrator 16.0.0, SVG Export Plug-In . SVG Version: 6.00 Build 0)  -->
<!DOCTYPE svg PUBLIC "-//W3C//DTD SVG 1.1//EN" "http://www.w3.org/Graphics/SVG/1.1/DTD/svg11.dtd">
<svg version="1.1" id="Layer_1" xmlns="http://www.w3.org/2000/svg" xmlns:xlink="http://www.w3.org/1999/xlink" x="0px" y="0px"
	 width="100px" height="100px" viewBox="0 0 100 100" enable-background="new 0 0 100 100" xml:space="preserve">
<path fill="#231815" d="M51.346,99.688V68.314c9.143-0.911,16.308-8.646,16.309-18.025c-0.001-9.378-7.166-17.112-16.309-18.024
	L51.345,0h-3.417v32.253c-4.231,0.37-8.161,2.188-11.198,5.228c-3.424,3.422-5.306,7.97-5.306,12.81l1.708,0.001l-1.708,0.001
	c0,9.443,7.269,17.213,16.504,18.032l0,31.361L51.346,99.688z M64.236,50.288c-0.001,7.492-5.638,13.682-12.891,14.579v-4.894
	c4.572-0.853,8.049-4.867,8.05-9.684c-0.001-2.631-1.025-5.107-2.888-6.969c-1.428-1.428-3.217-2.358-5.162-2.718v-4.89
	C58.597,36.61,64.236,42.798,64.236,50.288 M34.842,50.291H34.84c0-3.927,1.528-7.619,4.304-10.396
	c2.394-2.392,5.466-3.852,8.784-4.211v8.167l1.61-0.001c1.721,0,3.337,0.67,4.554,1.887s1.887,2.833,1.887,4.553
	c0,3.552-2.889,6.44-6.439,6.44l-1.611-0.001v8.168C40.582,64.092,34.842,57.853,34.842,50.291"/>
</svg>
